<svg width="115" height="68" viewBox="0 0 115 68" fill="none" xmlns="http://www.w3.org/2000/svg">
<path d="M19.888 68V12.32H0.304V0.799995H52.144V12.32H32.56V68H19.888Z" fill="white"/>
<path d="M58.8535 68V56.864H67.6855V11.936H58.8535V0.799995H86.5015C95.5255 0.799995 102.374 3.104 107.046 7.712C111.782 12.256 114.15 19.04 114.15 28.064V40.736C114.15 49.76 111.782 56.576 107.046 61.184C102.374 65.728 95.5255 68 86.5015 68H58.8535ZM80.3575 56.48H86.6935C91.8135 56.48 95.5575 55.136 97.9255 52.448C100.294 49.76 101.478 45.984 101.478 41.12V27.68C101.478 22.752 100.294 18.976 97.9255 16.352C95.5575 13.664 91.8135 12.32 86.6935 12.32H80.3575V56.48Z" fill="#BFBFFF"/>
</svg>
